# xmcd
#
# Track frame offsets:
#	183
#	11478
#	24063
#	33835
#	43708
#	55780
#	68090
#	78215
#	88943
#	99158
#	106905
#	115833
#	126023
#	137840
#	148770
#	159500
#	167595
#	177125
#
# Disc length: 2493 seconds
#
# Revision: 3
# Processed by: cddbd v1.5.2PL0 Copyright (c) Steve Scherf et al.
# Submitted via: EasyCDDAExtractor 16.0.6.1
#
DISCID=d809bb12
DTITLE=Johhny Cash - C-010 Original Hits
DYEAR=1900
DGENRE=Country
TTITLE0=Big River
TTITLE1=Folsom Prison Blues
TTITLE2=Ballad of a teenager queen
TTITLE3=Rock island line
TTITLE4=You're the nearest thing to heaven
TTITLE5=Next in line
TTITLE6=There you go
TTITLE7=Cold, cold heart
TTITLE8=Goodbye little darling goodbye
TTITLE9=Hey good looking
TTITLE10=Two timin' woman
TTITLE11=Straight A's in love
TTITLE12=Port of lonely hearts
TTITLE13=I love you because
TTITLE14=I just thought you'd like to know
TTITLE15=Sugar time
TTITLE16=It's just about time
TTITLE17=I could never be ashamed of you
EXTD=
EXTT0=
EXTT1=
EXTT2=
EXTT3=
EXTT4=
EXTT5=
EXTT6=
EXTT7=
EXTT8=
EXTT9=
EXTT10=
EXTT11=
EXTT12=
EXTT13=
EXTT14=
EXTT15=
EXTT16=
EXTT17=
PLAYORDER=
